<?xml version="1.0" standalone="no"?>
<!DOCTYPE svg PUBLIC "-//W3C//DTD SVG 20010904//EN"
 "http://www.w3.org/TR/2001/REC-SVG-20010904/DTD/svg10.dtd">
<svg version="1.0" xmlns="http://www.w3.org/2000/svg"
 width="1088.000000pt" height="1102.000000pt" viewBox="0 0 1088.000000 1102.000000"
 preserveAspectRatio="xMidYMid meet">
<metadata>
Created by potrace 1.15, written by Peter Selinger 2001-2017
</metadata>
<g transform="translate(0.000000,1102.000000) scale(0.100000,-0.100000)"
fill="#000000" stroke="none">
<path d="M4400 10348 l0 -363 -541 -340 c-297 -187 -535 -341 -530 -343 6 -2
247 145 536 327 289 182 528 331 530 331 3 0 5 -173 5 -385 l0 -385 435 0
c239 0 435 -2 435 -5 0 -3 -191 -409 -424 -903 -234 -493 -423 -899 -420 -901
2 -3 8 0 12 5 5 5 199 413 432 907 l424 897 177 0 177 0 30 -87 c16 -49 148
-434 292 -858 236 -692 280 -815 280 -778 0 6 -130 394 -290 862 -159 468
-290 854 -290 856 0 3 178 5 395 5 l395 0 0 306 c0 248 2 305 13 301 7 -3 204
-120 436 -261 233 -142 429 -256 435 -254 7 2 -189 125 -435 273 l-448 270 -1
443 0 442 -1030 0 -1030 0 0 -362z m2040 187 l0 -155 -1010 0 -1010 0 0 155 0
155 1010 0 1010 0 0 -155z m-1660 -355 l0 -180 -180 0 -180 0 0 180 0 180 180
0 180 0 0 -180z m1660 0 l0 -180 -820 0 -820 0 0 180 0 180 820 0 820 0 0
-180z m-1660 -585 l0 -385 -180 0 -180 0 0 385 0 385 180 0 180 0 0 -385z
m1660 0 l0 -385 -820 0 -820 0 0 385 0 385 820 0 820 0 0 -385z"/>
<path d="M5300 10194 c0 -36 -4 -53 -11 -49 -6 4 -9 21 -7 38 3 30 0 32 -29
35 -20 2 -33 -1 -33 -8 0 -7 8 -9 20 -5 11 3 20 2 20 -3 0 -5 -9 -12 -20 -15
-12 -3 -20 -14 -20 -26 0 -12 -4 -21 -10 -21 -5 0 -10 18 -10 40 l0 40 -55 0
-55 0 0 -40 c0 -30 -4 -40 -16 -40 -13 0 -15 8 -12 40 2 28 0 40 -9 40 -8 0
-13 -14 -13 -40 0 -22 -4 -40 -10 -40 -5 0 -10 18 -10 40 0 39 -1 40 -35 40
-34 0 -35 -1 -35 -41 0 -26 -4 -38 -11 -34 -6 4 -9 21 -7 38 3 30 0 32 -29 35
-21 2 -33 -1 -33 -9 0 -6 8 -9 20 -6 11 3 20 2 20 -3 0 -4 -8 -10 -19 -13 -10
-2 -20 -16 -23 -31 l-5 -26 311 1 c171 1 303 3 294 6 -16 4 -16 6 -3 19 18 18
20 65 3 82 -7 7 -27 12 -45 12 l-33 0 0 -55 c0 -44 -3 -55 -16 -55 -13 0 -15
10 -12 55 2 39 -1 55 -9 55 -9 0 -13 -18 -13 -55 0 -33 -4 -55 -11 -55 -7 0
-10 20 -7 55 2 39 -1 55 -9 55 -9 0 -13 -18 -13 -56z"/>
<path d="M2666 8894 c-316 -199 -361 -225 -371 -210 -17 22 -28 20 -20 -4 5
-17 2 -20 -22 -21 -15 0 -37 -4 -48 -9 -16 -7 -14 -9 15 -10 33 -1 34 -2 16
-15 -11 -8 -16 -18 -13 -22 4 -4 13 -1 19 5 19 19 30 14 18 -8 -11 -20 -21
-20 -880 -20 l-870 0 0 -1090 0 -1090 1030 0 1030 0 0 1090 0 1090 -150 0
-150 0 12 25 c13 28 19 30 37 13 10 -11 11 -8 6 12 -6 23 1 30 67 72 272 171
654 411 657 414 2 2 -2 4 -10 4 -8 0 -176 -102 -373 -226z m-116 -484 l0 -160
-1010 0 -1010 0 0 160 0 160 1010 0 1010 -1 0 -159z m-1660 -360 l0 -180 -180
0 -180 0 0 180 0 180 180 0 180 0 0 -180z m1660 0 l0 -180 -820 0 -820 0 0
180 0 180 820 0 820 0 0 -180z m-1660 -362 c0 -160 0 -1113 0 -1215 l0 -53
-180 0 -180 0 0 715 0 715 180 0 180 0 0 -162z m1660 -553 l0 -715 -820 0
-820 0 0 715 0 715 820 0 820 0 0 -715z"/>
<path d="M985 8109 c-4 -5 -8 -32 -8 -60 l-2 -49 205 1 c113 1 197 3 188 6
-16 4 -16 6 -3 19 18 18 20 65 3 82 -7 7 -27 12 -45 12 l-33 0 0 -55 c0 -30
-4 -55 -10 -55 -5 0 -10 25 -10 55 0 30 -4 55 -10 55 -5 0 -10 -25 -10 -55 0
-43 -3 -55 -16 -55 -12 0 -15 9 -12 38 3 34 1 37 -25 40 -20 2 -27 8 -23 18 3
8 -1 14 -9 14 -11 0 -15 -13 -15 -55 0 -30 -4 -55 -9 -55 -5 0 -7 9 -4 20 4
14 -2 22 -21 30 -34 12 -34 22 0 14 19 -5 25 -4 20 5 -4 6 -20 11 -37 11 -36
0 -40 -31 -6 -49 l22 -11 -24 6 c-19 5 -23 3 -18 -10 4 -10 1 -16 -8 -16 -11
0 -15 11 -15 40 0 22 -4 40 -10 40 -5 0 -10 -18 -10 -40 0 -29 -4 -40 -15 -40
-15 0 -22 50 -8 64 4 3 7 15 8 26 2 21 -19 27 -30 9z"/>
<path d="M7646 9091 c5 -5 182 -113 394 -241 212 -128 391 -238 399 -246 12
-11 12 -16 1 -28 -14 -18 0 -22 17 -5 8 8 18 0 38 -31 30 -48 45 -48 20 0 -16
31 -16 31 4 20 20 -10 21 -19 21 -183 0 -95 1 -512 3 -927 l2 -755 1028 -3
1027 -2 0 925 0 925 -1016 0 -1016 0 -30 25 -30 25 39 1 c36 1 35 2 -17 13
-34 7 -50 15 -42 19 7 5 9 13 6 19 -4 7 -10 5 -16 -6 -5 -9 -13 -16 -17 -16
-5 0 -187 108 -405 240 -342 207 -451 269 -410 231z m2934 -721 l0 -160 -1007
2 -1008 3 -3 158 -3 157 1011 0 1010 0 0 -160z m-1652 -357 l2 -183 -185 0
-185 0 0 185 0 185 183 -2 182 -3 3 -182z m1652 2 l0 -185 -820 0 -820 0 0
178 c0 98 3 182 7 185 3 4 372 7 820 7 l813 0 0 -185z m-1650 -755 l0 -550
-185 0 -185 0 0 550 0 550 185 0 185 0 0 -550z m1650 0 l0 -550 -820 0 -820 0
0 550 0 550 820 0 820 0 0 -550z"/>
<path d="M9240 8025 c0 -30 -4 -55 -10 -55 -12 0 -24 45 -17 63 6 17 -9 44
-19 34 -4 -4 -7 -28 -5 -52 1 -35 -2 -45 -13 -45 -10 0 -13 6 -9 16 4 12 0 14
-21 8 -16 -4 -26 -2 -26 5 0 6 12 11 26 11 19 0 25 4 22 18 -2 12 -13 17 -33
17 -28 0 -30 -3 -30 -38 0 -20 -5 -37 -11 -37 -7 0 -11 16 -10 38 1 36 0 37
-35 40 l-37 3 -4 -46 c-3 -47 8 -83 19 -57 3 9 50 12 181 13 98 0 168 4 158 8
-14 5 -16 10 -8 15 16 9 15 69 0 84 -7 7 -27 12 -45 12 l-33 0 0 -55 c0 -30
-4 -55 -10 -55 -5 0 -10 25 -10 55 0 30 -4 55 -10 55 -5 0 -10 -25 -10 -55z"/>
<path d="M6305 7263 c7 -19 379 -1110 561 -1645 57 -169 107 -313 110 -321 3
-9 -4 -17 -18 -22 l-23 -8 23 -4 c19 -4 23 -9 18 -26 -3 -12 -6 -28 -6 -34 0
-10 -105 -13 -490 -13 l-491 0 1 -167 c0 -93 1 -315 0 -494 l0 -325 -37 -19
c-28 -14 -70 -20 -155 -24 -112 -6 -119 -8 -145 -34 l-28 -27 -3 -463 c-3
-414 -1 -465 13 -493 32 -61 2 -59 814 -62 501 -2 748 1 755 8 7 7 -223 10
-735 11 -409 1 -755 4 -768 8 -13 3 -34 19 -45 34 -20 28 -21 40 -24 460 -2
293 0 444 8 470 16 55 45 69 153 75 80 4 99 2 145 -18 l52 -22 0 -219 0 -219
1030 0 1030 0 0 760 0 760 -511 2 -512 3 -9 25 -9 24 24 -22 c40 -38 53 -24
14 16 -33 34 -35 38 -19 50 15 11 14 12 -8 8 -25 -5 -27 1 -167 412 -415 1222
-537 1572 -545 1572 -6 0 -7 -8 -3 -17z m1725 -2248 l0 -155 -1010 0 -1010 0
0 155 0 155 1010 0 1010 0 0 -155z m-1650 -355 l0 -180 -185 0 -185 0 0 180 0
180 185 0 185 0 0 -180z m1650 0 l0 -180 -820 0 -820 0 0 180 0 180 820 0 820
0 0 -180z m-1650 -585 l0 -385 -185 0 -185 0 0 385 0 385 185 0 185 0 0 -385z
m1650 0 l0 -385 -820 0 -820 0 0 385 0 385 820 0 820 0 0 -385z"/>
<path d="M3883 6248 c-401 -848 -453 -953 -472 -951 -23 3 -29 -12 -8 -20 10
-4 -17 -32 -57 -59 -6 -4 -7 -10 -3 -14 4 -4 16 1 27 11 23 21 39 13 20 -10
-11 -13 -78 -15 -521 -15 l-509 0 0 -595 0 -595 1030 0 1030 0 0 595 0 595
-490 0 -490 0 0 36 c0 32 2 35 23 29 21 -6 21 -5 3 9 -24 19 -70 -85 459 1031
475 1003 430 905 418 905 -5 0 -212 -429 -460 -952z m517 -1233 l0 -155 -1010
0 -1010 0 0 155 0 155 1010 0 1010 0 0 -155z m-1660 -355 l0 -180 -180 0 -180
0 0 180 0 180 180 0 180 0 0 -180z m1660 0 l0 -180 -820 0 -820 0 0 180 0 180
820 0 820 0 0 -180z m-1660 -420 l0 -220 -180 0 -180 0 0 220 0 220 180 0 180
0 0 -220z m1660 0 l0 -220 -820 0 -820 0 0 220 0 220 820 0 820 0 0 -220z"/>
<path d="M2300 4255 c-38 -21 -60 -24 -143 -25 -117 0 -156 -14 -180 -66 -15
-31 -17 -85 -17 -490 0 -401 2 -460 16 -490 28 -60 48 -64 276 -62 l203 2
-200 5 c-213 6 -239 12 -265 61 -7 13 -10 173 -8 496 l3 476 28 24 c26 22 36
24 138 24 91 0 117 -3 150 -21 46 -23 66 -19 22 5 l-28 15 28 1 c15 0 27 5 27
10 0 6 -12 10 -27 10 -27 1 -27 1 -9 15 10 8 24 16 30 18 6 2 9 7 6 10 -3 3
-25 -6 -50 -18z"/>
<path d="M3078 3121 l184 -6 29 -33 29 -32 0 -466 c0 -506 -1 -513 -56 -534
-14 -6 -68 -10 -120 -10 -81 0 -102 4 -144 25 l-50 25 0 235 c0 181 -3 235
-12 235 -13 0 -2027 0 -2040 0 -4 0 -7 -341 -5 -757 l2 -758 1028 -3 1027 -2
0 465 0 465 50 25 c41 21 64 25 137 26 109 0 150 14 180 58 l23 34 0 459 c0
405 -2 464 -16 494 -28 59 -51 64 -251 62 l-178 -2 183 -5z m-148 -731 l0
-160 -1007 2 -1008 3 -3 158 -3 157 1011 0 1010 0 0 -160z m-1652 -357 l2
-183 -185 0 -185 0 0 185 0 185 183 -2 182 -3 3 -182z m1652 2 l0 -185 -820 0
-820 0 0 178 c0 98 3 182 7 185 3 4 372 7 820 7 l813 0 0 -185z m-1650 -590
l0 -385 -185 0 -185 0 0 385 0 385 185 0 185 0 0 -385z m1650 0 l0 -385 -820
0 -820 0 0 385 0 385 820 0 820 0 0 -385z"/>
<path d="M1530 2044 c0 -34 -4 -53 -10 -49 -5 3 -10 22 -10 41 0 31 -2 34 -30
34 -16 0 -30 -5 -30 -11 0 -6 9 -8 20 -4 11 3 20 2 20 -4 0 -5 -10 -11 -22
-13 -17 -2 -23 -9 -22 -25 0 -13 -5 -23 -12 -23 -7 0 -10 8 -7 21 4 15 0 22
-16 26 -28 7 -27 23 2 16 17 -4 19 -3 11 6 -16 17 -58 10 -62 -10 -2 -11 7
-21 25 -28 l28 -11 -29 5 c-22 5 -27 3 -23 -9 3 -8 1 -17 -6 -20 -7 -2 92 -4
218 -4 127 0 220 3 207 5 -20 4 -20 6 -7 19 18 18 20 65 3 82 -7 7 -27 12 -45
12 l-33 0 0 -55 c0 -44 -3 -55 -16 -55 -13 0 -15 10 -12 55 2 39 -1 55 -9 55
-9 0 -13 -18 -13 -55 0 -46 -3 -55 -17 -55 -15 0 -16 2 -3 10 16 10 8 14 -22
11 -10 -1 -18 3 -18 8 0 6 12 11 26 11 36 0 29 34 -8 38 -34 4 -54 -27 -38
-58 9 -16 8 -20 -5 -20 -12 0 -15 12 -15 55 0 30 -4 55 -10 55 -5 0 -10 -25
-10 -56z"/>
<path d="M7970 3090 c0 -7 282 -10 825 -10 595 0 831 -3 849 -11 54 -25 56
-40 56 -503 0 -458 -2 -475 -51 -510 -18 -12 -47 -16 -126 -16 -85 0 -110 4
-148 22 l-45 22 0 238 0 238 -22 0 c-13 0 -471 0 -1018 0 -547 0 -1001 0
-1007 0 -10 0 -13 -192 -13 -925 l0 -925 1030 0 1030 0 0 633 0 634 48 21 c35
16 73 22 152 25 115 4 142 13 165 57 23 44 22 917 -1 961 -31 61 -5 59 -904
59 -540 0 -820 -3 -820 -10z m1340 -700 l0 -160 -1010 0 -1010 0 0 160 0 160
1010 0 1010 0 0 -160z m-1660 -355 l0 -185 -180 0 -180 0 0 185 0 185 180 0
180 0 0 -185z m1660 0 l0 -185 -820 0 -820 0 0 185 0 185 820 0 820 0 0 -185z
m-1660 -755 l0 -550 -180 0 -180 0 0 550 0 550 180 0 180 0 0 -550z m1660 0
l0 -550 -820 0 -820 0 0 550 0 550 820 0 820 0 0 -550z"/>
<path d="M7739 2088 c0 -7 -1 -34 -2 -61 l-2 -47 240 1 c132 1 230 4 219 6
-21 4 -21 6 -8 32 23 45 4 81 -41 81 l-35 0 0 -55 c0 -44 -3 -55 -16 -55 -13
0 -15 10 -12 55 2 39 -1 55 -9 55 -9 0 -13 -18 -13 -55 0 -30 -4 -55 -10 -55
-5 0 -10 25 -10 55 0 30 -4 55 -10 55 -5 0 -10 -6 -10 -14 0 -8 -10 -16 -22
-18 -19 -2 -23 -9 -23 -41 0 -29 -4 -37 -18 -37 -15 0 -16 3 -7 20 6 12 8 30
5 41 -5 16 -14 19 -38 17 -30 -3 -32 -6 -32 -41 0 -26 -4 -37 -15 -37 -11 0
-15 11 -15 37 0 35 -2 38 -32 41 -28 3 -33 -1 -39 -23 -4 -15 -1 -31 6 -40 10
-12 9 -15 -9 -15 -17 0 -21 6 -21 34 0 19 6 37 13 39 9 4 8 6 -2 6 -11 1 -11
4 -1 16 10 13 9 15 -9 15 -11 0 -21 -6 -22 -12z"/>
</g>
</svg>
